{
  "accessors": [
    {
      "bufferView": 2,
      "componentType": 5126,
      "count": 63829,
      "max": [
        0.2795010805130005,
        0.2869061827659607,
        0.19888481497764587
      ],
      "min": [
        -0.3388962745666504,
        -0.33438023924827576,
        -0.24446216225624084
      ],
      "type": "VEC3"
    },
    {
      "bufferView": 2,
      "byteOffset": 765948,
      "componentType": 5126,
      "count": 63829,
      "max": [
        0.9999849796295166,
        0.9994401931762695,
        1.0
      ],
      "min": [
        -0.9999969601631165,
        -0.999967634677887,
        -1.0
      ],
      "type": "VEC3"
    },
    {
      "bufferView": 1,
      "componentType": 5126,
      "count": 63829,
      "max": [
        0.9954752922058105,
        0.9999518394470215
      ],
      "min": [
        7.239231490530074e-05,
        5.047378363087773e-05
      ],
      "type": "VEC2"
    },
    {
      "bufferView": 0,
      "componentType": 5125,
      "count": 339195,
      "type": "SCALAR"
    },
    {
      "bufferView": 2,
      "byteOffset": 1531896,
      "componentType": 5126,
      "count": 49352,
      "max": [
        0.27816343307495117,
        0.2643232047557831,
        0.18623337149620056
      ],
      "min": [
        -0.3388962745666504,
        -0.3347925543785095,
        -0.240793377161026
      ],
      "type": "VEC3"
    },
    {
      "bufferView": 2,
      "byteOffset": 2124120,
      "componentType": 5126,
      "count": 49352,
      "max": [
        0.9999679923057556,
        0.999997615814209,
        1.0
      ],
      "min": [
        -0.99996417760849,
        -0.999961256980896,
        -0.9999906420707703
      ],
      "type": "VEC3"
    },
    {
      "bufferView": 1,
      "byteOffset": 510632,
      "componentType": 5126,
      "count": 49352,
      "max": [
        0.9999867081642151,
        0.9910838603973389
      ],
      "min": [
        6.524287164211273e-05,
        1.766905188560486e-05
      ],
      "type": "VEC2"
    },
    {
      "bufferView": 0,
      "byteOffset": 1356780,
      "componentType": 5125,
      "count": 260049,
      "type": "SCALAR"
    }
  ],
  "asset": {
    "extras": {
      "author": "snacksthecat (https://sketchfab.com/snacksthecat)",
      "license": "CC-BY-4.0 (http://creativecommons.org/licenses/by/4.0/)",
      "source": "https://sketchfab.com/3d-models/micro-switch-sd-keycap-2fc5209b25984e6f82f5e882c31e61ca",
      "title": "Micro Switch SD Keycap"
    },
    "generator": "Sketchfab-13.68.0",
    "version": "2.0"
  },
  "bufferViews": [
    {
      "buffer": 0,
      "byteLength": 2396976,
      "name": "floatBufferViews",
      "target": 34963
    },
    {
      "buffer": 0,
      "byteLength": 905448,
      "byteOffset": 2396976,
      "byteStride": 8,
      "name": "floatBufferViews",
      "target": 34962
    },
    {
      "buffer": 0,
      "byteLength": 2716344,
      "byteOffset": 3302424,
      "byteStride": 12,
      "name": "floatBufferViews",
      "target": 34962
    }
  ],
  "buffers": [
    {
      "byteLength": 6018768,
      "uri": "keycap.bin"
    }
  ],
  "extensionsUsed": [
    "KHR_materials_unlit"
  ],
  "images": [
    {
      "uri": "textures/material0_baseColor.jpeg"
    },
    {
      "uri": "textures/material1_baseColor.jpeg"
    }
  ],
  "materials": [
    {
      "doubleSided": true,
      "extensions": {
        "KHR_materials_unlit": {}
      },
      "name": "material0",
      "pbrMetallicRoughness": {
        "baseColorTexture": {
          "index": 0
        },
        "metallicFactor": 0.0
      }
    },
    {
      "doubleSided": true,
      "extensions": {
        "KHR_materials_unlit": {}
      },
      "name": "material1",
      "pbrMetallicRoughness": {
        "baseColorTexture": {
          "index": 1
        },
        "metallicFactor": 0.0
      }
    }
  ],
  "meshes": [
    {
      "name": "Model_material0_0",
      "primitives": [
        {
          "attributes": {
            "NORMAL": 1,
            "POSITION": 0,
            "TEXCOORD_0": 2
          },
          "indices": 3,
          "material": 0,
          "mode": 4
        }
      ]
    },
    {
      "name": "Model_material1_0",
      "primitives": [
        {
          "attributes": {
            "NORMAL": 5,
            "POSITION": 4,
            "TEXCOORD_0": 6
          },
          "indices": 7,
          "material": 1,
          "mode": 4
        }
      ]
    }
  ],
  "nodes": [
    {
      "children": [
        1
      ],
      "matrix": [
        -0.9746312499046326,
        0.22381681203842163,
        4.969731560465132e-17,
        0.0,
        0.0,
        2.220446049250313e-16,
        -1.0,
        0.0,
        -0.22381681203842163,
        -0.9746312499046326,
        -2.164116108326636e-16,
        0.0,
        0.0,
        0.0,
        0.0,
        1.0
      ],
      "name": "Sketchfab_model"
    },
    {
      "children": [
        2
      ],
      "matrix": [
        1.0,
        0.0,
        0.0,
        0.0,
        0.0,
        -1.0,
        0.0,
        0.0,
        0.0,
        0.0,
        -1.0,
        0.0,
        0.0,
        0.0,
        0.0,
        1.0
      ],
      "name": "model.fbx"
    },
    {
      "children": [
        3
      ],
      "name": "RootNode"
    },
    {
      "children": [
        4,
        5
      ],
      "name": "Model"
    },
    {
      "mesh": 0,
      "name": "Model_material0_0"
    },
    {
      "mesh": 1,
      "name": "Model_material1_0"
    }
  ],
  "samplers": [
    {
      "magFilter": 9729,
      "minFilter": 9987,
      "wrapS": 10497,
      "wrapT": 10497
    }
  ],
  "scene": 0,
  "scenes": [
    {
      "name": "Sketchfab_Scene",
      "nodes": [
        0
      ]
    }
  ],
  "textures": [
    {
      "sampler": 0,
      "source": 0
    },
    {
      "sampler": 0,
      "source": 1
    }
  ]
}
